<?xml version="1.0" encoding="UTF-8" standalone="no"?>
<svg
   xmlns:dc="http://purl.org/dc/elements/1.1/"
   xmlns:cc="http://creativecommons.org/ns#"
   xmlns:rdf="http://www.w3.org/1999/02/22-rdf-syntax-ns#"
   xmlns:svg="http://www.w3.org/2000/svg"
   xmlns="http://www.w3.org/2000/svg"
   xmlns:sodipodi="http://sodipodi.sourceforge.net/DTD/sodipodi-0.dtd"
   xmlns:inkscape="http://www.inkscape.org/namespaces/inkscape"
   width="305"
   height="305"
   viewBox="0 0 80.697915 80.697919"
   version="1.1"
   id="svg8"
   sodipodi:docname="logo-pure.svg"
   inkscape:export-filename="/home/rob/Clients/smartlanches/logo-pure.png"
   inkscape:export-xdpi="410.59299"
   inkscape:export-ydpi="410.59299"
   inkscape:version="1.0.1 (3bc2e813f5, 2020-09-07)">
  <sodipodi:namedview
     pagecolor="#ffffff"
     bordercolor="#666666"
     borderopacity="1"
     objecttolerance="10"
     gridtolerance="10"
     guidetolerance="10"
     inkscape:pageopacity="0"
     inkscape:pageshadow="2"
     inkscape:window-width="1366"
     inkscape:window-height="736"
     id="namedview31"
     showgrid="false"
     inkscape:zoom="1.3330702"
     inkscape:cx="152.5"
     inkscape:cy="159.46752"
     inkscape:window-x="0"
     inkscape:window-y="0"
     inkscape:window-maximized="0"
     inkscape:current-layer="svg8"
     inkscape:document-rotation="0" />
  <defs
     id="defs2">
    <marker
       orient="auto"
       refY="0"
       refX="0"
       id="DistanceStart"
       style="overflow:visible">
      <g
         id="g2300"
         style="fill:#803b3b;fill-opacity:1;stroke:#803b3b;stroke-opacity:1">
        <path
           id="path2306"
           d="M 0,0 H 2"
           style="fill:#803b3b;fill-opacity:1;stroke:#803b3b;stroke-width:1.15;stroke-linecap:square;stroke-opacity:1" />
        <path
           id="path2302"
           d="M 0,0 13,4 9,0 13,-4 Z"
           style="fill:#803b3b;fill-opacity:1;fill-rule:evenodd;stroke:#803b3b;stroke-opacity:1" />
        <path
           id="path2304"
           d="M 0,-4 V 40"
           style="fill:#803b3b;fill-opacity:1;stroke:#803b3b;stroke-width:1;stroke-linecap:square;stroke-opacity:1" />
      </g>
    </marker>
    <marker
       style="overflow:visible"
       id="DotL"
       refX="0"
       refY="0"
       orient="auto">
      <path
         transform="matrix(0.8,0,0,0.8,5.92,0.8)"
         style="fill:#803b3b;fill-opacity:1;fill-rule:evenodd;stroke:#803b3b;stroke-width:1pt;stroke-opacity:1"
         d="m -2.5,-1 c 0,2.76 -2.24,5 -5,5 -2.76,0 -5,-2.24 -5,-5 0,-2.76 2.24,-5 5,-5 2.76,0 5,2.24 5,5 z"
         id="path1096" />
    </marker>
  </defs>
  <metadata
     id="metadata5">
    <rdf:RDF>
      <cc:Work
         rdf:about="">
        <dc:format>image/svg+xml</dc:format>
        <dc:type
           rdf:resource="http://purl.org/dc/dcmitype/StillImage" />
        <dc:title />
      </cc:Work>
    </rdf:RDF>
  </metadata>
  <g
     id="g1029">
    <circle
       style="fill:#ffffff;fill-opacity:1;stroke:#803b3b;stroke-width:1.765;stroke-miterlimit:4;stroke-dasharray:none;stroke-opacity:1"
       id="circle927"
       cx="40.348961"
       cy="40.348961"
       r="39.451359" />
    <circle
       style="fill:none;stroke:#803b3b;stroke-width:0.754;stroke-miterlimit:4;stroke-dasharray:1.508, 1.508;stroke-dashoffset:0;stroke-opacity:1"
       id="circle929"
       cx="48.371769"
       cy="-30.266134"
       r="30.263699"
       transform="rotate(77.03153)" />
    <g
       aria-label="2020"
       id="text1004"
       style="font-style:normal;font-weight:normal;font-size:4.23333px;line-height:1.25;font-family:sans-serif;fill:#803b3b;fill-opacity:1;stroke:none;stroke-width:0.264583">
      <path
         d="m 37.051395,75.788222 q -0.01399,0.134743 0.02025,0.214906 0.03424,0.08016 0.09768,0.125052 0.06344,0.04489 0.150989,0.06249 0.08755,0.0176 0.180187,0.02721 l 0.109478,0.01136 -0.06337,0.610553 -2.004298,-0.20803 1.391239,-1.881491 q 0.03937,-0.05124 0.07031,-0.10336 0.0263,-0.04834 0.04505,-0.105982 0.01919,-0.06185 0.01688,-0.121673 -0.01128,-0.137365 -0.107091,-0.198383 -0.09581,-0.06102 -0.217924,-0.07369 -0.02991,0.0012 -0.06868,0.0056 -0.03456,0.0049 -0.121396,0.02145 -0.03456,0.0049 -0.120959,0.01724 -0.08219,0.01275 -0.166403,0.004 -0.122111,-0.01267 -0.188011,-0.07484 -0.06169,-0.06173 -0.09085,-0.149879 -0.02872,-0.09236 -0.0313,-0.190516 -0.0021,-0.102368 -0.0014,-0.191667 0.234808,-0.04798 0.463657,-0.07956 0.23306,-0.03114 0.452017,-0.0084 0.240011,0.02491 0.42961,0.125456 0.190037,0.09633 0.303525,0.274099 0.100578,0.138121 0.126077,0.302499 0.0255,0.164377 0.0093,0.320173 -0.0057,0.05474 -0.01077,0.06272 -0.03651,0.187734 -0.144164,0.363827 -0.107217,0.171883 -0.221108,0.326049 -0.113454,0.149955 -0.20788,0.280605 -0.09022,0.131086 -0.100703,0.232143 z"
         style="font-style:normal;font-variant:normal;font-weight:normal;font-stretch:normal;font-size:4.23333px;font-family:FORTA;-inkscape-font-specification:FORTA;fill:#803b3b;fill-opacity:1;stroke-width:0.264583"
         id="path919" />
      <path
         d="m 39.345944,73.670351 q 0.334235,0.01151 0.566791,0.146587 0.232703,0.130851 0.377293,0.360328 0.144736,0.225246 0.202088,0.527965 0.06158,0.302864 0.04949,0.654023 -0.01194,0.346927 -0.09435,0.64907 -0.07803,0.298058 -0.237918,0.512818 -0.159883,0.214759 -0.401179,0.333528 -0.241295,0.118768 -0.57553,0.107262 -0.334236,-0.01151 -0.566792,-0.146588 -0.232557,-0.135081 -0.377293,-0.360327 -0.144736,-0.225246 -0.206318,-0.528111 -0.05721,-0.306949 -0.04526,-0.653877 0.01209,-0.351158 0.09012,-0.649216 0.08226,-0.297913 0.242148,-0.512672 0.160029,-0.21899 0.401179,-0.333528 0.241296,-0.118768 0.575531,-0.107262 z m -0.06886,2.615377 q 0.152309,0.0052 0.248009,-0.06771 0.0957,-0.07295 0.150985,-0.202358 0.05543,-0.133639 0.07832,-0.30652 0.02727,-0.176966 0.03412,-0.375815 0.0068,-0.198849 -0.0083,-0.373041 -0.01081,-0.178277 -0.06129,-0.311326 -0.04611,-0.137134 -0.140797,-0.216639 -0.09469,-0.0795 -0.255458,-0.08504 -0.156541,-0.0054 -0.260702,0.06727 -0.09993,0.07281 -0.159301,0.197836 -0.05514,0.125177 -0.08197,0.289451 -0.02246,0.160189 -0.02858,0.337883 -0.0076,0.220003 0.01126,0.411264 0.01898,0.18703 0.0734,0.328686 0.05457,0.137426 0.149113,0.221161 0.09892,0.07965 0.251228,0.08489 z"
         style="font-style:normal;font-variant:normal;font-weight:normal;font-stretch:normal;font-size:4.23333px;font-family:FORTA;-inkscape-font-specification:FORTA;fill:#803b3b;fill-opacity:1;stroke-width:0.264583"
         id="path921" />
      <path
         d="m 41.99675,75.908253 q 0.0048,0.135383 0.04976,0.210046 0.04499,0.07466 0.11402,0.110355 0.06903,0.03569 0.158175,0.04103 0.08914,0.0053 0.182219,0.0021 l 0.109998,-0.0039 0.0216,0.613452 -2.013817,0.07091 1.117919,-2.055677 q 0.03191,-0.05619 0.05536,-0.112084 0.01937,-0.05151 0.02997,-0.11119 0.01046,-0.06391 -8.9e-5,-0.12284 -0.03015,-0.134489 -0.133476,-0.181682 -0.103325,-0.04719 -0.226016,-0.04287 -0.02947,0.0053 -0.06724,0.01508 -0.03355,0.0097 -0.117268,0.03802 -0.03355,0.0097 -0.117417,0.03379 -0.07964,0.02398 -0.164253,0.02696 -0.12269,0.0043 -0.196549,-0.04815 -0.06963,-0.05262 -0.110684,-0.135889 -0.0412,-0.0875 -0.05732,-0.184363 -0.01627,-0.10109 -0.02786,-0.189637 0.225926,-0.07997 0.448217,-0.142861 0.226521,-0.06304 0.446518,-0.07079 0.24115,-0.0085 0.442824,0.06489 0.201525,0.06915 0.338487,0.229531 0.118698,0.122899 0.166666,0.282176 0.04797,0.159277 0.05348,0.315813 0.0019,0.055 -0.002,0.06361 -0.01022,0.190978 -0.09251,0.380257 -0.08244,0.185049 -0.173936,0.353473 -0.09164,0.164193 -0.167112,0.306637 -0.07124,0.142295 -0.06766,0.243832 z"
         style="font-style:normal;font-variant:normal;font-weight:normal;font-stretch:normal;font-size:4.23333px;font-family:FORTA;-inkscape-font-specification:FORTA;fill:#803b3b;fill-opacity:1;stroke-width:0.264583"
         id="path923" />
      <path
         d="m 43.964111,73.493341 q 0.332482,-0.03608 0.581864,0.06461 0.248927,0.09648 0.42464,0.303095 0.175257,0.202409 0.275017,0.493915 0.103969,0.29105 0.141872,0.640366 0.03745,0.345107 -0.0012,0.655892 -0.03491,0.306119 -0.16268,0.541407 -0.127764,0.235288 -0.349748,0.38712 -0.221983,0.151831 -0.554465,0.187907 -0.332481,0.03608 -0.581864,-0.06461 -0.249383,-0.100686 -0.42464,-0.303095 -0.175256,-0.202409 -0.279226,-0.493459 -0.100217,-0.295714 -0.137663,-0.640822 -0.0379,-0.349316 -0.003,-0.655435 0.03912,-0.306576 0.166889,-0.541864 0.127308,-0.239497 0.349748,-0.38712 0.221983,-0.151831 0.554465,-0.187907 z m 0.303256,2.598649 q 0.151511,-0.01644 0.235881,-0.102242 0.08437,-0.0858 0.120717,-0.221749 0.03589,-0.140156 0.034,-0.314536 0.0019,-0.179046 -0.0196,-0.376851 -0.02146,-0.197806 -0.06123,-0.368076 -0.03601,-0.174936 -0.104882,-0.299467 -0.06512,-0.129196 -0.170135,-0.194448 -0.105018,-0.06525 -0.264946,-0.0479 -0.155719,0.0169 -0.248507,0.103612 -0.08858,0.08626 -0.129591,0.218453 -0.0368,0.131739 -0.04004,0.298159 5.18e-4,0.161754 0.0197,0.338517 0.02375,0.218848 0.06955,0.405497 0.04534,0.182439 0.119335,0.314931 0.07353,0.128283 0.179009,0.197744 0.109227,0.0648 0.260737,0.04836 z"
         style="font-style:normal;font-variant:normal;font-weight:normal;font-stretch:normal;font-size:4.23333px;font-family:FORTA;-inkscape-font-specification:FORTA;fill:#803b3b;fill-opacity:1;stroke-width:0.264583"
         id="path925" />
    </g>
    <path
       style="color:#000000;font-style:normal;font-variant:normal;font-weight:normal;font-stretch:normal;font-size:medium;line-height:normal;font-family:sans-serif;font-variant-ligatures:normal;font-variant-position:normal;font-variant-caps:normal;font-variant-numeric:normal;font-variant-alternates:normal;font-variant-east-asian:normal;font-feature-settings:normal;font-variation-settings:normal;text-indent:0;text-align:start;text-decoration:none;text-decoration-line:none;text-decoration-style:solid;text-decoration-color:#000000;letter-spacing:normal;word-spacing:normal;text-transform:none;writing-mode:lr-tb;direction:ltr;text-orientation:mixed;dominant-baseline:auto;baseline-shift:baseline;text-anchor:start;white-space:normal;shape-padding:0;shape-margin:0;inline-size:0;clip-rule:nonzero;display:inline;overflow:visible;visibility:visible;isolation:auto;mix-blend-mode:normal;color-interpolation:sRGB;color-interpolation-filters:linearRGB;solid-color:#000000;solid-opacity:1;vector-effect:none;fill:none;fill-opacity:1;fill-rule:nonzero;stroke:none;stroke-width:1.60094;stroke-linecap:butt;stroke-linejoin:miter;stroke-miterlimit:4;stroke-dasharray:none;stroke-dashoffset:0;stroke-opacity:1;color-rendering:auto;image-rendering:auto;shape-rendering:auto;text-rendering:auto;enable-background:accumulate;stop-color:#000000"
       d="m 35.392798,76.596516 c 20.009526,2.735914 38.467806,-11.28189 41.203716,-31.29141 2.73591,-20.00951 -11.28189,-38.46779 -31.29141,-41.20371 -20.009508,-2.73592 -38.467775,11.28189 -41.203706,31.2914 -2.735901,20.00952 11.281878,38.46779 31.2914,41.20372 z m 0.216719,-1.58499 C 16.457233,72.392816 3.067674,54.761796 5.686387,35.609516 8.305071,16.457246 25.93587,3.069436 45.088164,5.688136 c 19.15226,2.61871 32.54032,20.24773 29.92161,39.40003 -2.6187,19.15227 -20.24797,32.54207 -39.400257,29.92336 z"
       id="path1011" />
    <g
       id="g1000">
      <path
         id="path947"
         style="fill:#ffffff;fill-opacity:1;stroke:none;stroke-width:0.240366;stroke-miterlimit:4;stroke-dasharray:none;stroke-dashoffset:0"
         d="m 42.694531,17.510676 c -2.106755,0.031 -3.854376,2.17282 -3.417945,4.24605 -0.0091,0.54494 0.614848,1.04875 0.108879,1.50896 -0.603739,0.96657 -1.285343,2.09197 -0.877166,3.27302 0.150315,0.55166 0.473958,1.05687 0.918653,1.41729 -2.661597,0.36406 -4.633685,2.46798 -6.147083,4.52572 -0.248968,0.21736 -0.522225,1.11414 -0.685276,0.7801 -0.897132,-2.16842 -3.061405,-3.38775 -4.951429,-4.58686 -0.963753,-0.70242 -2.305904,-1.07579 -2.864649,-2.20529 -0.533721,-1.53745 0.738601,-3.105 2.082787,-3.71712 0.90598,-0.40247 1.936515,-0.69551 2.928932,-0.49773 -0.521102,1.86802 -1.89759,3.54205 -1.785156,5.5586 0.145772,1.52795 2.29376,2.23172 3.30728,1.07019 0.728757,-0.64755 0.483519,-1.71631 0.994679,-2.48867 0.765256,-1.7599 1.94898,-3.6864 1.248822,-5.6616 -0.735623,-1.93699 -3.044399,-2.62857 -4.946271,-2.43505 -3.204819,0.18937 -6.337338,2.19584 -7.481028,5.2593 -0.97879,2.37455 -0.15187,5.30133 1.91645,6.82091 1.889323,1.41536 4.216404,2.28841 5.798138,4.08595 0.612069,0.90989 -0.01357,2.11883 -1.006433,2.40958 -1.39399,0.53369 -2.979245,0.75891 -4.446875,0.43353 -1.35055,-0.33674 -1.70616,-2.47616 -0.37304,-3.08399 1.281155,-0.53944 1.570952,-2.47155 0.42382,-3.30859 -0.83589,-0.71632 -2.05413,-0.4504 -2.83789,0.20898 -2.22418,1.42454 -2.93167,4.54348 -1.7861,6.87141 0.8317,2.02094 2.94363,3.27366 5.086419,3.34959 2.377118,0.0986 4.921404,-0.2856 6.895217,-1.69659 0.46744,-0.33754 0.878177,-0.75533 1.208765,-1.22753 0.78126,1.64951 2.842635,2.40259 4.537145,1.79759 0.66875,-0.19047 1.29022,-0.5187 1.873011,-0.89329 1.48984,1.36194 3.888845,0.92934 5.386259,-0.19842 1.059071,-0.77596 1.935386,-1.95306 2.586397,-2.97346 -0.389638,1.59089 0.557426,3.47786 2.251953,3.75586 1.346566,0.26453 2.735722,-0.16257 3.882813,-0.86523 1.127856,1.51866 3.329613,1.70484 4.93164,0.8789 0.383987,-0.1315 0.771941,-0.48723 1.115235,-0.55664 1.573568,1.35728 4.029923,0.84556 5.529194,-0.37644 1.395859,-1.17337 2.470517,-2.71762 3.21104,-4.37356 0.420104,-1.37091 -1.003058,-2.86712 -2.396484,-2.39843 -0.790812,0.1801 -1.229077,0.89787 -1.560547,1.57226 0.212856,-0.471 -0.180591,-1.01534 0.193359,-1.4043 0.72206,-1.569 -0.07684,-3.63807 -1.745818,-4.19642 -2.264809,-0.85076 -4.752373,0.32123 -6.362884,1.93691 -1.254171,1.11204 -2.157098,2.53066 -3.082643,3.90592 -0.476728,0.60501 -1.042303,1.14182 -1.681702,1.57234 0.763715,-1.57097 1.529554,-3.54743 0.51691,-5.18926 -0.388324,-0.68975 -0.975242,-1.24604 -1.612613,-1.70527 0.144931,-1.03956 -0.508805,-2.16299 -1.457031,-2.48242 1.862939,-1.02771 2.352452,-3.76956 0.978021,-5.38626 -0.376643,-0.51511 -1.008258,-0.75208 -1.237787,-1.3735 -0.729868,-1.03732 -2.024693,-1.66215 -3.292968,-1.5293 -0.570486,-0.31033 -1.227113,-0.4555 -1.875,-0.42774 z m 2.24414,11.46485 c 0.07342,0.47552 0.319607,0.90909 -0.04661,1.33444 -0.536498,1.1597 -1.016795,2.35036 -1.648702,3.46243 0.18477,-0.5096 -0.171835,-1.05514 0.229959,-1.47815 0.32552,-0.84564 0.288611,-1.83692 -0.120584,-2.6488 0.579406,-0.0374 1.182894,-0.36302 1.585937,-0.66992 z m -5.175781,2.93359 c -0.913681,0.79326 -1.009117,2.13937 -1.961564,2.88884 -0.66116,0.65122 -1.365649,1.31204 -2.243514,1.65218 0.522196,-1.59398 1.758291,-2.85561 2.99414,-3.93946 0.347819,-0.23926 0.83542,-0.64551 1.210938,-0.60156 z m 20.115234,0.002 c -0.914803,0.79109 -1.009257,2.13792 -1.961335,2.88712 -0.661441,0.65056 -1.365832,1.31257 -2.243743,1.65195 0.29765,-0.89069 0.850527,-1.67213 1.417211,-2.35836 0.77181,-0.89588 1.620828,-1.86382 2.782008,-2.22758 z m -42.046874,8.53907 c -2.27644,0.0955 -4.20695,1.90222 -4.87891,4.01367 -0.49248,-1.2374 -2.19846,-1.49777 -3.16015,-0.65039 -1.59179,1.00532 -2.21108,3.16833 -1.44672,4.87779 0.41703,1.08802 1.2689,1.96129 2.25922,2.54994 -0.6608,1.83813 -1.37417,3.6639 -2.29297,5.39063 -1.77926,-0.49307 -4.07253,-0.67961 -5.41519,0.84557 -1.31098,1.36016 -0.64539,3.69574 0.88589,4.59193 1.69699,1.09826 4.15873,1.13243 5.65039,-0.34961 0.28257,-0.5764 0.76943,0.0123 1.17671,0.0734 2.74255,1.09843 5.98862,1.84977 8.77739,0.4842 0.41403,-0.21368 0.72155,-0.56562 1.07325,-0.0635 1.59377,1.10551 3.707858,0.5346 5.189449,-0.48633 1.352709,1.26287 3.535163,0.9754 5.001953,0.0625 1.05743,0.33606 2.066627,-0.42092 2.509674,-1.34422 1.300291,-1.84014 2.526945,-3.85411 4.400482,-5.1675 -0.432089,1.41596 -1.226983,2.86015 -0.943359,4.37891 0.310177,1.50905 1.975222,2.28826 3.403979,2.02789 0.685806,-0.0715 1.364815,-0.25636 1.971021,-0.59039 0.9222,1.50108 2.741899,2.34367 4.482422,2.03125 1.27902,-0.14613 2.500696,-0.69481 3.519531,-1.45117 0.67785,0.91238 1.884472,0.84136 2.894531,0.88086 -0.290541,-0.503 0.359742,-0.61077 0.548481,-0.97678 1.074552,-1.5726 1.761119,-3.38534 2.849957,-4.95487 -0.523258,1.45449 -0.995176,3.28841 0.134765,4.5918 1.31523,1.45883 3.673552,1.2286 5.119475,0.0873 0.317302,-0.29264 0.560796,-0.46464 0.806307,0.006 1.97611,1.81884 5.094825,1.66312 7.29873,0.34809 0.451426,-0.49427 0.718823,-0.0567 1.087988,0.28472 1.557432,1.18056 3.833264,1.28702 5.560547,0.42609 1.84283,-0.95785 2.39294,-3.25933 2.151337,-5.18025 -0.169683,-1.8115 -0.783068,-3.54304 -1.416962,-5.23412 0.375375,-1.26055 -0.365562,-2.84664 -1.761498,-2.98565 -1.406447,-0.13983 -2.480639,1.31241 -2.285377,2.63995 -0.204582,0.65672 -0.689218,1.30365 -1.066406,1.82617 0.152411,-1.58994 -0.877084,-3.24793 -2.481013,-3.59299 -2.255296,-0.5706 -4.42323,0.9199 -5.783633,2.59995 -1.212374,1.32157 -1.7859,3.0752 -3.013452,4.38222 -0.413141,0.5583 -0.588924,0.61778 -0.247147,-0.13871 0.549891,-1.48328 0.708214,-3.49818 -0.687646,-4.57469 -0.40599,-0.31157 -0.887703,-0.51221 -1.386718,-0.61718 1.368592,-1.92938 2.323994,-4.19991 2.607421,-6.55469 0.173833,-1.52171 -0.381699,-3.40764 -2.003906,-3.89063 -1.675727,-0.50681 -3.177002,0.79461 -4.029297,2.10743 -1.752917,2.57558 -3.114755,5.40477 -4.189453,8.32421 -1.07715,-1.72184 -3.580886,-1.98178 -5.193359,-0.88086 -1.80337,1.20399 -3.034082,3.12818 -3.818945,5.11743 -0.181695,0.44074 -0.586487,1.10285 -0.290985,0.27781 0.492308,-1.52151 0.185861,-3.52952 -1.367501,-4.30849 -1.759116,-0.93942 -3.962308,-0.37877 -5.405382,0.89177 -0.53898,-1.16475 -2.259423,-1.47188 -3.115997,-0.48242 -0.369093,0.36163 -0.577968,0.87046 -0.59494,1.38476 0.08258,-1.82884 -1.699552,-3.235 -3.442145,-3.17013 -2.61645,-0.0564 -4.743549,1.79627 -6.307079,3.70542 -1.03184,1.29468 -1.97512,2.76385 -2.25468,4.41784 -0.94516,-0.057 -1.6791,0.75457 -2.64436,0.67394 -1.49544,0.059 -2.93426,-0.45676 -4.30681,-0.9923 1.02903,-1.98441 1.79349,-4.09235 2.55664,-6.18945 3.22096,-0.44492 6.44371,-2.6381 7.25,-5.91797 0.46452,-2.00266 -0.30462,-4.47757 -2.34268,-5.27574 -0.49879,-0.22081 -1.05139,-0.28882 -1.59287,-0.2809 z m 0.0918,3.9375 c 0.27378,1.29747 -0.84648,2.37062 -1.85938,2.98437 0.4143,-1.01584 0.55489,-2.35268 1.59766,-2.93555 0.0559,0.0117 0.2305,-0.1331 0.26172,-0.0488 z m -5.94336,2.86718 c 0.0281,-0.47519 -0.008,-0.0444 0,0 z m 15.013669,7.0586 c -0.916907,0.78994 -1.00829,2.13847 -1.961566,2.88688 -0.655686,0.64621 -1.390128,1.34097 -2.245463,1.64242 0.54607,-1.61561 1.800536,-2.89618 3.068357,-3.98633 0.330285,-0.21819 0.793095,-0.59364 1.138672,-0.54297 z m 3.625,0.68554 c -0.334526,1.18849 0.09496,-0.85926 0,0 z m 15.751953,0.20899 c 0.06367,1.26381 1.519608,2.25178 2.695312,1.68945 -0.728639,1.25228 -2.024791,2.48434 -3.574218,2.33399 -0.741095,-0.66235 -0.342451,-1.74531 0.05572,-2.48971 0.162028,-0.55846 0.506268,-1.14963 0.823183,-1.53373 z m 28.089844,1.66406 c 0.06526,0.66504 0.311586,1.51587 -0.0957,2.08789 -0.506339,0.0774 -1.231399,0.18121 -1.421874,-0.43359 0.328555,-0.7522 0.94627,-1.28407 1.466796,-1.90039 0.01693,0.082 0.03385,0.16406 0.05078,0.24609 z m -6.06836,0.96094 c -0.758719,0.52845 -1.680546,0.98737 -2.615234,0.91406 0.929281,-0.24312 1.849402,-0.54278 2.705078,-0.98437 l -0.07875,0.0616 z" />
      <g
         id="g968"
         transform="matrix(0.35712928,0.20618868,-0.20618868,0.35712928,68.722876,-64.779701)"
         style="fill:#803b3b;fill-opacity:1">
        <path
           id="path960"
           style="fill:#803b3b;fill-opacity:1;stroke:none;stroke-width:2.20301;stroke-miterlimit:4;stroke-dasharray:none;stroke-dashoffset:0"
           d="m 206.4375,770.9082 a 23.63782,23.63782 0 0 0 -15.8457,6.09961 23.63782,23.63782 0 0 0 -2.1543,-0.0996 23.63782,23.63782 0 0 0 -23.63867,23.63672 23.63782,23.63782 0 0 0 15.61719,22.23633 c -0.0435,0.49174 -0.0762,0.98683 -0.0762,1.49023 v 20.15235 c 0,9.19434 7.40332,16.59765 16.59766,16.59765 h 19 c 9.19435,0 16.5957,-7.40331 16.5957,-16.59765 v -20.15235 c 0,-0.5034 -0.0308,-0.99849 -0.0742,-1.49023 a 23.63782,23.63782 0 0 0 15.61524,-22.23633 23.63782,23.63782 0 0 0 -23.63672,-23.63672 23.63782,23.63782 0 0 0 -2.1543,0.0996 23.63782,23.63782 0 0 0 -15.8457,-6.09961 z"
           transform="scale(0.26458333)" />
        <g
           id="g966"
           style="fill:#803b3b;fill-opacity:1">
          <rect
             style="fill:#803b3b;fill-opacity:1;stroke:none;stroke-width:0.116139;stroke-miterlimit:4;stroke-dasharray:none;stroke-dashoffset:0"
             id="rect962"
             width="1.5118833"
             height="5.1182208"
             x="48.922966"
             y="217.94312"
             ry="0.40604609" />
          <rect
             style="fill:#803b3b;fill-opacity:1;stroke:none;stroke-width:0.0646803;stroke-miterlimit:4;stroke-dasharray:none;stroke-dashoffset:0"
             id="rect964"
             width="1.5118833"
             height="1.5874743"
             x="48.922966"
             y="223.5905"
             ry="0.36994979" />
        </g>
      </g>
      <g
         aria-label="SaraLanches"
         id="text1016"
         style="font-style:normal;font-weight:normal;font-size:25.2392px;line-height:0.85;font-family:sans-serif;fill:#803b3b;fill-opacity:1;stroke:none;stroke-width:0.630981">
        <path
           d="m 24.674469,40.319269 q 0.378588,0 0.984329,-0.05048 2.549159,-0.252392 4.063511,-1.161003 1.943419,-1.186243 2.170571,-3.331575 0.227153,-2.19581 -1.413395,-3.760641 -1.26196,-1.211481 -3.78588,-2.675355 -0.959089,-0.580502 -1.716265,-1.060047 -1.161004,-0.807654 -1.362917,-2.044375 -0.227153,-1.463873 0.908611,-2.952986 0.782415,-1.009568 1.993897,-1.539591 1.211481,-0.530024 2.347245,-0.605741 1.388156,-0.07572 1.943419,0.479545 0.403827,0.429066 -0.782415,2.902508 -0.984329,2.069614 -0.984329,3.003464 0,0.353349 0.252392,0.63098 0.277631,0.252393 0.656219,0.252393 0.353349,0 0.605741,-0.252393 0.277631,-0.277631 0.277631,-0.63098 0,-0.580501 0.832894,-2.246288 0.757176,-1.691027 0.93385,-2.347246 0.378588,-1.615309 -0.479545,-2.549159 -1.110525,-1.161004 -3.356813,-1.034808 -1.539592,0.07572 -3.028704,0.782416 -1.640548,0.757176 -2.624877,2.069614 -1.640548,2.145332 -1.26196,4.315903 0.151435,1.034808 0.757176,1.867701 0.504784,0.782416 1.388156,1.388156 0.328109,0.227153 1.791983,1.110525 2.296767,1.337678 3.45777,2.422963 1.009568,0.95909 0.883372,2.271528 -0.151435,1.312439 -1.337677,1.993897 -1.110525,0.706698 -3.281096,0.908612 -2.422964,0.227152 -3.432532,-0.706698 -1.135764,-1.085286 -0.93385,-2.549159 0.151435,-1.2872 1.489113,-1.993897 0.328109,-0.176675 0.429066,-0.530023 0.126196,-0.353349 -0.05048,-0.681459 -0.176675,-0.328109 -0.530023,-0.429066 -0.353349,-0.126196 -0.681459,0.05048 -2.145332,1.135764 -2.422963,3.331575 -0.151435,1.161003 0.252392,2.221049 0.378588,1.085286 1.211482,1.867701 1.337677,1.26196 3.836358,1.26196 z"
           style="font-style:normal;font-variant:normal;font-weight:normal;font-stretch:normal;font-family:FabfeltScript;-inkscape-font-specification:FabfeltScript;text-align:center;text-anchor:middle;fill:#803b3b;fill-opacity:1;stroke-width:0.630981"
           id="path929" />
        <path
           d="m 35.274919,39.36018 h 0.126196 q 1.463874,-0.07572 3.331575,-1.564831 0.07572,0.227153 0.201913,0.504784 0.530024,0.807655 1.791984,0.807655 1.590069,0 2.877269,-1.186243 1.312438,-1.161003 2.49868,-3.407292 0.176675,-0.32811 0.05048,-0.681458 -0.100957,-0.353349 -0.429067,-0.530024 -0.328109,-0.176674 -0.681458,-0.05048 -0.353349,0.100957 -0.530023,0.429066 -1.91818,3.634445 -3.78588,3.634445 -0.252392,0 -0.277632,-0.02524 -0.05048,-0.151435 0.100957,-0.782415 0.05048,-0.151435 0.151435,-0.429067 0.126196,-0.30287 0.151436,-0.378588 0.403827,-0.454305 0.530023,-0.63098 1.135764,-1.463873 0.782415,-2.246288 -0.176674,-0.302871 -0.504784,-0.454306 0.32811,0.02524 0.580502,-0.176674 0.277631,-0.201914 0.328109,-0.530024 0.302871,-1.539591 -0.883372,-2.296767 -0.883372,-0.555262 -2.170571,-0.353349 -1.26196,0.176675 -2.422963,1.009568 -1.388156,1.009568 -2.725834,2.751073 -1.514352,2.069615 -1.665787,3.634445 -0.151435,1.236721 0.656219,2.120093 0.757176,0.832894 1.918179,0.832894 z m 4.871166,-8.606568 q 0.353349,0 0.555262,0.126196 0.176675,0.05048 0.100957,0.429067 -0.126196,0.731936 0.555263,1.009568 h -0.07572 q -0.555262,0 -1.034807,0.63098 -0.277631,0.353348 -0.580502,1.034807 l -0.151435,0.328109 q -0.02524,0.07572 -0.100957,0.227153 -0.05048,0.126196 -0.100957,0.201914 -2.473441,2.751073 -3.987793,2.82679 -0.403827,0.02524 -0.65622,-0.252392 -0.227152,-0.277631 -0.201913,-0.757176 0.100957,-1.110525 1.287199,-2.650116 1.211482,-1.56483 2.397724,-2.422963 1.009568,-0.731937 1.993897,-0.731937 z"
           style="font-style:normal;font-variant:normal;font-weight:normal;font-stretch:normal;font-family:FabfeltScript;-inkscape-font-specification:FabfeltScript;text-align:center;text-anchor:middle;fill:#803b3b;fill-opacity:1;stroke-width:0.630981"
           id="path931" />
        <path
           d="m 49.434021,38.931113 h 0.227152 0.02524 q 1.590069,-0.126196 3.205378,-1.438634 1.539591,-1.211482 2.52392,-2.877269 0.201914,-0.302871 0.100957,-0.656219 -0.07572,-0.378588 -0.403827,-0.555263 -0.32811,-0.201913 -0.706698,-0.100957 -0.353349,0.07572 -0.530023,0.403828 -0.858133,1.413395 -2.094854,2.397724 -1.211481,0.984329 -2.19581,1.034807 h -0.05048 q -0.277631,0.02524 -0.328109,-0.02524 -0.176675,-0.555263 0.605741,-2.170572 0.984328,-2.044375 0.782415,-3.1549 -0.252392,-1.413395 -2.170571,-2.574398 0.100956,-0.454306 0.100956,-0.63098 0.05048,-0.984329 -0.681458,-1.312439 -0.429066,-0.201913 -0.908611,0 -0.479545,0.176675 -0.731937,0.65622 -0.378588,0.681458 -0.100957,1.413395 0.07572,0.201914 0.201914,0.403827 -1.463874,3.306335 -2.069615,4.492578 -0.151435,0.328109 -0.02524,0.681458 0.126196,0.353349 0.454306,0.504784 0.328109,0.151435 0.681458,0.02524 0.353349,-0.126196 0.530023,-0.454305 0.02524,-0.05048 0.32811,-0.731937 0.328109,-0.681458 0.782415,-1.691026 0.454306,-1.009568 0.757176,-1.665788 0.95909,0.63098 1.085286,1.211482 0.100957,0.555262 -0.63098,2.044375 -0.656219,1.337678 -0.782415,2.296767 -0.151436,1.034808 0.30287,1.665788 0.530023,0.807654 1.716266,0.807654 z"
           style="font-style:normal;font-variant:normal;font-weight:normal;font-stretch:normal;font-family:FabfeltScript;-inkscape-font-specification:FabfeltScript;text-align:center;text-anchor:middle;fill:#803b3b;fill-opacity:1;stroke-width:0.630981"
           id="path933" />
        <path
           d="m 55.390439,39.36018 h 0.126196 q 1.463873,-0.07572 3.331574,-1.564831 0.07572,0.227153 0.201914,0.504784 0.530023,0.807655 1.791983,0.807655 1.59007,0 2.877269,-1.186243 1.312438,-1.161003 2.498681,-3.407292 0.176674,-0.32811 0.05048,-0.681458 -0.100957,-0.353349 -0.429066,-0.530024 -0.32811,-0.176674 -0.681459,-0.05048 -0.353348,0.100957 -0.530023,0.429066 -1.918179,3.634445 -3.78588,3.634445 -0.252392,0 -0.277631,-0.02524 -0.05048,-0.151435 0.100957,-0.782415 0.05048,-0.151435 0.151435,-0.429067 0.126196,-0.30287 0.151435,-0.378588 0.403827,-0.454305 0.530023,-0.63098 1.135764,-1.463873 0.782416,-2.246288 -0.176675,-0.302871 -0.504784,-0.454306 0.328109,0.02524 0.580501,-0.176674 0.277631,-0.201914 0.32811,-0.530024 0.30287,-1.539591 -0.883372,-2.296767 -0.883372,-0.555262 -2.170571,-0.353349 -1.26196,0.176675 -2.422964,1.009568 -1.388156,1.009568 -2.725833,2.751073 -1.514352,2.069615 -1.665788,3.634445 -0.151435,1.236721 0.65622,2.120093 0.757176,0.832894 1.918179,0.832894 z m 4.871166,-8.606568 q 0.353348,0 0.555262,0.126196 0.176674,0.05048 0.100957,0.429067 -0.126196,0.731936 0.555262,1.009568 h -0.07572 q -0.555263,0 -1.034808,0.63098 -0.277631,0.353348 -0.580501,1.034807 l -0.151435,0.328109 q -0.02524,0.07572 -0.100957,0.227153 -0.05048,0.126196 -0.100957,0.201914 -2.473442,2.751073 -3.987794,2.82679 -0.403827,0.02524 -0.656219,-0.252392 -0.227153,-0.277631 -0.201914,-0.757176 0.100957,-1.110525 1.2872,-2.650116 1.211481,-1.56483 2.397724,-2.422963 1.009568,-0.731937 1.993897,-0.731937 z"
           style="font-style:normal;font-variant:normal;font-weight:normal;font-stretch:normal;font-family:FabfeltScript;-inkscape-font-specification:FabfeltScript;text-align:center;text-anchor:middle;fill:#803b3b;fill-opacity:1;stroke-width:0.630981"
           id="path935" />
        <path
           d="m 16.042716,61.966085 q 0.30287,0 0.479545,-0.02524 1.463873,-0.07572 2.725834,-0.782416 0.30287,-0.201913 0.378588,-0.555262 0.100956,-0.353349 -0.07572,-0.681458 -0.176674,-0.32811 -0.555262,-0.403828 -0.353349,-0.100956 -0.65622,0.100957 -1.615309,0.908611 -4.189707,0.32811 -1.59007,-0.378588 -3.684923,-1.312439 0.504784,-0.832893 1.060046,-2.019136 0.984329,-2.145332 2.22105,-5.67882 1.640548,-0.07572 3.1549,-0.832893 1.741505,-0.832894 2.751073,-2.145332 1.56483,-1.993897 1.060046,-4.164469 -0.227153,-0.984328 -0.883372,-1.56483 -0.63098,-0.605741 -1.539591,-0.706698 -1.161003,-0.126196 -2.347246,0.63098 -1.110525,0.731937 -1.741505,2.019136 -0.227152,0.504784 -1.211481,3.382053 -0.05048,0.151436 -0.151435,0.454306 -0.07572,0.277631 -0.176675,0.530023 -0.07572,0.227153 -0.151435,0.454306 -1.312438,-0.454306 -1.59007,-1.59007 -0.227152,-0.883372 0.681459,-1.362917 0.328109,-0.176674 0.429066,-0.530023 0.100957,-0.353349 -0.07572,-0.681458 -0.176675,-0.32811 -0.530024,-0.429067 -0.328109,-0.100957 -0.681458,0.07572 -1.0348073,0.555262 -1.4386345,1.489113 -0.378588,0.858133 -0.126196,1.867701 0.3281096,1.312438 1.4891125,2.170571 0.555263,0.454305 1.26196,0.681458 -1.135764,3.255857 -2.0443749,5.174036 -0.3533488,0.757176 -1.0600464,2.069615 L 8.5971519,57.826856 q -1.6405481,-0.555262 -2.9277473,-0.479545 -1.2871992,0.05048 -1.9434184,0.782415 -0.7824153,0.858133 -0.3028704,1.968658 0.3281096,0.782415 1.2367208,1.26196 0.883372,0.454306 2.0443752,0.454306 0.7571761,0 1.5395913,-0.504784 0.63098,-0.429067 1.2114816,-1.161004 2.5239203,1.161004 4.3159033,1.539592 1.26196,0.277631 2.271528,0.277631 z m 1.943418,-18.677009 q 0.07572,0 0.126197,0.02524 0.656219,0.05048 0.858132,0.883372 0.302871,1.312438 -0.706697,2.650116 -1.463874,1.817222 -3.886837,2.221049 0.07572,-0.176674 0.176674,-0.504784 0.126196,-0.328109 0.151435,-0.429066 0.757176,-2.422963 1.135764,-3.205379 0.353349,-0.782415 0.95909,-1.211481 0.605741,-0.429067 1.186242,-0.429067 z M 5.0384246,59.341208 q 0.050478,-0.07572 0.2776312,-0.151435 0.252392,-0.07572 0.883372,-0.02524 0.6562192,0.02524 1.4891129,0.277631 -0.5805017,0.580501 -0.9843289,0.580501 -0.9338504,0 -1.5395912,-0.479544 -0.126196,-0.126196 -0.126196,-0.201913 z"
           style="font-style:normal;font-variant:normal;font-weight:normal;font-stretch:normal;font-family:FabfeltScript;-inkscape-font-specification:FabfeltScript;text-align:center;text-anchor:middle;fill:#803b3b;fill-opacity:1;stroke-width:0.630981"
           id="path937" />
        <path
           d="m 22.503919,61.764171 h 0.126196 q 1.463873,-0.07572 3.331574,-1.56483 0.07572,0.227153 0.201914,0.504784 0.530023,0.807654 1.791983,0.807654 1.59007,0 2.877269,-1.186242 1.312438,-1.161003 2.498681,-3.407292 0.176674,-0.32811 0.05048,-0.681459 -0.100957,-0.353348 -0.429066,-0.530023 -0.32811,-0.176674 -0.681459,-0.05048 -0.353348,0.100957 -0.530023,0.429066 -1.918179,3.634445 -3.78588,3.634445 -0.252392,0 -0.277631,-0.02524 -0.05048,-0.151435 0.100957,-0.782415 0.05048,-0.151436 0.151435,-0.429067 0.126196,-0.30287 0.151435,-0.378588 0.403827,-0.454305 0.530023,-0.63098 1.135764,-1.463873 0.782416,-2.246289 -0.176675,-0.30287 -0.504784,-0.454305 0.328109,0.02524 0.580501,-0.176675 0.277631,-0.201913 0.32811,-0.530023 0.30287,-1.539591 -0.883372,-2.296767 -0.883372,-0.555263 -2.170572,-0.353349 -1.26196,0.176674 -2.422963,1.009568 -1.388156,1.009568 -2.725833,2.751073 -1.514352,2.069614 -1.665788,3.634445 -0.151435,1.236721 0.65622,2.120093 0.757176,0.832893 1.918179,0.832893 z m 4.871166,-8.606567 q 0.353348,0 0.555262,0.126196 0.176674,0.05048 0.100957,0.429066 -0.126196,0.731937 0.555262,1.009568 h -0.07572 q -0.555263,0 -1.034808,0.63098 -0.277631,0.353349 -0.580501,1.034808 l -0.151436,0.328109 q -0.02524,0.07572 -0.100956,0.227153 -0.05048,0.126196 -0.100957,0.201914 -2.473442,2.751072 -3.987794,2.82679 -0.403827,0.02524 -0.656219,-0.252392 -0.227153,-0.277631 -0.201914,-0.757176 0.100957,-1.110525 1.2872,-2.650116 1.211481,-1.564831 2.397724,-2.422963 1.009568,-0.731937 1.993897,-0.731937 z"
           style="font-style:normal;font-variant:normal;font-weight:normal;font-stretch:normal;font-family:FabfeltScript;-inkscape-font-specification:FabfeltScript;text-align:center;text-anchor:middle;fill:#803b3b;fill-opacity:1;stroke-width:0.630981"
           id="path939" />
        <path
           d="m 31.160904,60.805082 q 0.479545,0 0.757176,-0.403828 4.139229,-6.335039 6.032169,-6.335039 0.65622,0 0.782416,0.176674 v 0.02524 q 0.02524,0.02524 0.02524,0.07572 0.02524,0.05048 0.02524,0.151435 0,0.07572 -0.02524,0.201914 0,0.126196 -0.02524,0.277631 -0.151436,0.706698 -0.530024,1.640548 -0.429066,1.2872 -0.504784,1.691027 -0.30287,1.135764 0.32811,1.817222 0.757176,0.832894 2.624877,0.378588 1.665787,-0.429066 3.028704,-2.52392 0.277631,-0.429066 0.530023,-0.883372 0.252392,-0.479545 0.353349,-0.731937 0.100957,-0.252392 0.100957,-0.277631 0.126196,-0.353349 -0.02524,-0.681458 -0.151436,-0.353349 -0.479545,-0.479545 -0.353349,-0.126196 -0.706698,0.02524 -0.328109,0.151435 -0.454305,0.504784 -0.302871,0.782415 -0.832894,1.59007 -0.984329,1.489113 -1.943419,1.716265 -0.530023,0.126196 -0.807654,0.126196 0,-0.126196 0.07572,-0.429066 0.100956,-0.353349 0.403827,-1.211482 0.504784,-1.438634 0.580501,-1.943418 0.252392,-1.287199 -0.277631,-2.094854 -0.63098,-0.93385 -2.246289,-0.93385 -1.413395,0 -3.003464,1.413395 -0.681459,0.605741 -1.438635,1.514352 0.201914,-0.984329 0.277631,-1.665787 0.02524,-0.378588 -0.227153,-0.656219 -0.227152,-0.277632 -0.580501,-0.32811 -0.378588,-0.02524 -0.656219,0.227153 -0.277632,0.227153 -0.32811,0.580501 -0.07572,0.908612 -0.504784,2.498681 -0.403827,1.564831 -0.757176,2.624877 -0.353349,1.034807 -0.403827,1.135764 -0.252392,0.731937 0.454305,1.085286 0.176675,0.100957 0.378588,0.100957 z"
           style="font-style:normal;font-variant:normal;font-weight:normal;font-stretch:normal;font-family:FabfeltScript;-inkscape-font-specification:FabfeltScript;text-align:center;text-anchor:middle;fill:#803b3b;fill-opacity:1;stroke-width:0.630981"
           id="path941" />
        <path
           d="m 45.622938,62.11752 q 2.120093,0 3.886837,-1.413395 1.716266,-1.362917 2.776312,-3.836359 0.126196,-0.353348 -0.02524,-0.681458 -0.126196,-0.353349 -0.454306,-0.479545 -0.328109,-0.151435 -0.681458,0 -0.353349,0.126196 -0.504784,0.454306 -0.832894,1.993897 -2.145332,3.079182 -1.312439,1.085286 -2.85203,1.085286 -0.883372,0 -1.362917,-0.984329 -0.454305,-0.908611 -0.07572,-2.22105 0.403827,-1.337677 1.539591,-2.852029 1.312438,-1.716266 2.246289,-1.463874 0.454305,0.100957 0.504784,0.63098 0.07572,0.530023 -0.555263,0.858133 -0.328109,0.176674 -0.454305,0.530023 -0.100957,0.353349 0.07572,0.681459 0.201914,0.328109 0.530024,0.454305 0.353348,0.100957 0.681458,-0.07572 0.832894,-0.429067 1.211482,-1.161004 0.378588,-0.681458 0.30287,-1.489113 -0.126196,-0.757176 -0.555262,-1.337677 -0.479545,-0.605741 -1.26196,-0.807655 -0.984329,-0.30287 -2.094854,0.252392 -1.034807,0.504784 -2.044375,1.842462 -1.236721,1.640548 -1.716266,3.1549 -0.479545,1.489113 -0.378588,2.322007 0.100957,0.807654 0.454306,1.489112 0.479545,0.933851 1.287199,1.463874 0.782415,0.504784 1.665787,0.504784 z"
           style="font-style:normal;font-variant:normal;font-weight:normal;font-stretch:normal;font-family:FabfeltScript;-inkscape-font-specification:FabfeltScript;text-align:center;text-anchor:middle;fill:#803b3b;fill-opacity:1;stroke-width:0.630981"
           id="path943" />
        <path
           d="m 51.73077,61.436062 q 0.60574,0 1.161003,-0.908612 0.02524,-0.05048 0.656219,-1.23672 1.362917,-2.599638 1.993897,-3.457771 1.135764,-1.56483 1.918179,-1.56483 0.403827,0 0.479545,0.07572 0,0.530023 -0.02524,0.656219 -0.100957,0.479545 -0.504784,1.59007 -0.479545,1.514352 -0.555263,1.842462 -0.227153,1.236721 0.252392,1.943418 0.580502,0.807655 1.842462,0.807655 1.665787,0 3.760641,-2.397724 0.429066,-0.479545 0.832893,-1.009568 0.403828,-0.530024 0.63098,-0.858133 l 0.201914,-0.32811 q 0.176674,-0.30287 0.100957,-0.656219 -0.07572,-0.378588 -0.378588,-0.580502 -0.32811,-0.176674 -0.681459,-0.100956 -0.353348,0.07572 -0.555262,0.378588 l -0.201914,0.277631 q -0.176674,0.277631 -0.555262,0.782415 -0.353349,0.479545 -0.731937,0.908611 -1.56483,1.791983 -2.422963,1.791983 -0.126196,0 -0.252392,-0.02524 l -0.126196,-0.02524 q 0,-0.353349 0.07572,-0.656219 0.05048,-0.277631 0.454305,-1.489113 0.32811,-0.93385 0.479545,-1.463874 0.151435,-0.530023 0.151435,-1.236721 0,-0.706697 -0.328109,-1.186242 -0.605741,-0.832894 -1.943419,-0.832894 -1.691026,0 -3.382053,2.322007 -0.883372,1.186242 -1.918179,3.281096 0.100957,-1.186242 0.429066,-2.877269 0.151436,-0.656219 0.252392,-0.984329 2.574399,-0.757176 4.341143,-2.978225 1.413395,-1.766744 2.19581,-4.214947 0.555263,-1.56483 0.504784,-2.877269 -0.100956,-1.514352 -1.034807,-1.993897 -0.832893,-0.378588 -1.691026,0.151436 -0.681459,0.429066 -1.312439,1.337677 -1.514352,2.145332 -2.902508,5.174036 -1.489113,3.18014 -2.094853,6.00693 -0.454306,2.145332 -0.504784,3.710163 -0.07572,1.791983 0.454305,2.448202 0.353349,0.454306 0.933851,0.454306 z m 6.3098,-17.566484 q 0.05048,0.252392 0.05048,0.605741 0,0.706697 -0.403827,1.993897 -1.362917,4.038272 -4.139229,5.527385 1.59007,-4.265425 3.760641,-7.319369 0.30287,-0.454305 0.731937,-0.807654 z"
           style="font-style:normal;font-variant:normal;font-weight:normal;font-stretch:normal;font-family:FabfeltScript;-inkscape-font-specification:FabfeltScript;text-align:center;text-anchor:middle;fill:#803b3b;fill-opacity:1;stroke-width:0.630981"
           id="path945" />
        <path
           d="m 65.965611,61.612736 q 1.817223,0 3.558728,-1.110525 2.094853,-1.287199 3.104421,-3.659684 0.126196,-0.353349 -0.02524,-0.681458 -0.126196,-0.353349 -0.454305,-0.479545 -0.353349,-0.151435 -0.706698,0 -0.32811,0.126196 -0.479545,0.479545 -0.782415,1.817222 -2.271528,2.751073 -1.463873,0.908611 -2.725834,0.908611 -0.555262,0 -1.110524,-0.227153 -0.555263,-0.252392 -0.782416,-0.706698 -0.201913,-0.353348 -0.151435,-0.807654 3.583967,-0.681458 5.098319,-1.89294 1.539591,-1.211482 1.791983,-2.473442 0.151435,-0.807654 -0.100957,-1.438634 -0.227153,-0.706698 -0.807654,-1.085286 -1.034807,-0.681458 -2.498681,-0.252392 -1.817223,0.580502 -3.48301,2.877269 -1.312438,1.791983 -1.665787,3.331575 -0.353349,1.489112 0.227153,2.574398 0.479545,0.95909 1.463873,1.413395 1.009568,0.479545 2.019136,0.479545 z m 2.473442,-9.035634 q 0.32811,0 0.479545,0.100957 0.227153,0.151435 0.126196,0.656219 -0.151435,0.757176 -1.26196,1.514352 -1.110525,0.757176 -3.205379,1.26196 0.353349,-0.656219 0.807655,-1.26196 1.287199,-1.791983 2.52392,-2.19581 0.30287,-0.07572 0.530023,-0.07572 z"
           style="font-style:normal;font-variant:normal;font-weight:normal;font-stretch:normal;font-family:FabfeltScript;-inkscape-font-specification:FabfeltScript;text-align:center;text-anchor:middle;fill:#803b3b;fill-opacity:1;stroke-width:0.630981"
           id="path948" />
        <path
           d="m 73.890691,61.865128 q 2.019136,0 2.902508,-1.337678 1.56483,-2.322006 -0.681459,-7.975587 -0.176674,-0.504784 -0.176674,-0.555262 0.328109,-1.236721 -0.252392,-1.716266 -0.530023,-0.504784 -1.161003,-0.05048 -0.530024,0.353348 -0.479545,1.312438 0,0.05048 0,0.151435 0.02524,0.100957 0.02524,0.151435 -0.07572,0.252392 -0.227153,0.504784 -1.060046,2.170572 -3.811119,4.694492 -0.277631,0.252392 -0.277631,0.63098 -0.02524,0.353349 0.227152,0.63098 0.252392,0.277631 0.63098,0.30287 0.353349,0 0.63098,-0.252392 1.640548,-1.489113 2.725834,-2.852029 0.504784,-0.65622 0.858133,-1.261961 0.479545,1.362917 0.681458,2.473442 0.353349,2.019136 -0.201913,2.801551 -0.32811,0.555263 -1.413395,0.555263 -0.605741,0 -0.984329,-0.126196 -0.378588,-0.151435 -0.479545,-0.277631 -0.100957,-0.126196 -0.227153,-0.353349 -0.176674,-0.32811 -0.530023,-0.429067 -0.353349,-0.126196 -0.681459,0.05048 -0.328109,0.176674 -0.429066,0.530023 -0.126196,0.32811 0.05048,0.681458 0.908612,1.716266 3.281097,1.716266 z"
           style="font-style:normal;font-variant:normal;font-weight:normal;font-stretch:normal;font-family:FabfeltScript;-inkscape-font-specification:FabfeltScript;text-align:center;text-anchor:middle;fill:#803b3b;fill-opacity:1;stroke-width:0.630981"
           id="path950" />
      </g>
    </g>
  </g>
</svg>
